# xmcd CD database file
#
# Track frame offsets:
#	150
#	4012
#	28700
#	56142
#	77917
#	95265
#	115477
#	134980
#	152342
#	170765
#	194107
#	209147
#	228335
#	246112
#	264222
#	280987
#
# Disc length: 4056 seconds
#
# Revision: 0
# Processed by: cddbd v1.5.2PL0 Copyright (c) Steve Scherf et al.
# Submitted via: CDex 1.70beta2
#
DISCID=ec0fd610
DTITLE=The Price-Bernstein Project - Philly Nights
DYEAR=1900
DGENRE=Jazz
TTITLE0=Intro
TTITLE1=You Know How To Make Me (Feel So Good)
TTITLE2=My Philly Girl
TTITLE3=Rittenhouse Romance
TTITLE4=The Plateau
TTITLE5=Overbrook Park
TTITLE6=Manayunk Stroll
TTITLE7=The Delaware
TTITLE8=Zanzibar Blu
TTITLE9=People Make The World Go Round
TTITLE10=76 West
TTITLE11=Spell (On My Mind)
TTITLE12=Hope That We Can Be Together Soon
TTITLE13=Philly Nights
TTITLE14=Philadelphia Love
TTITLE15=All That
EXTD=
EXTT0=
EXTT1=
EXTT2=
EXTT3=
EXTT4=
EXTT5=
EXTT6=
EXTT7=
EXTT8=
EXTT9=
EXTT10=
EXTT11=
EXTT12=
EXTT13=
EXTT14=
EXTT15=
PLAYORDER=
